<svg fill="none" height="32" viewBox="0 0 32 32" width="32" xmlns="http://www.w3.org/2000/svg"><g fill="#212121"><path d="m23.65 11.606c1.3955-1.2296 3.1901-1.9105 5.05-1.916h1.28v20.31h-27.98v-8.23c.80716-.8035 1.69001-1.5208 2.63396-2.1433.07937.4729.49068.8333.98616.8333.55228 0 1-.4477 1-1 0-.3131-.14393-.5927-.36923-.776.90229-.4615 1.84717-.8429 2.82411-1.138-.01869.0018-.03725.0043-.05581.0068-.0341.0046-.06823.0092-.10319.0092h-.77c-.51171-.0005-1.0023-.204-1.36413-.5659-.36183-.3618-.56534-.8524-.56587-1.3641v-.79c.00083-.3294.08577-.6531.24678-.9405.161-.2873.39273-.5288.67322-.7015v-.458c.00203-.7323.20922-1.4494.59807-2.07s.94381-1.11977 1.60193-1.441l1.951-.938c-.011-.09261-.017-.18574-.018-.279-.2626-.40642-.3928-.88417-.373-1.36761.0199-.48345.189-.94889.484-1.33239v-.534c-.0008-.84455.3337-1.65489.9299-2.25301.5963-.59813 1.4055-.93513 2.2501-.93699h1.96c.8317.00008 1.63.32689 2.223.91.4019-.4709.9013-.84891 1.4637-1.1079.5623-.25898 1.1742-.392766 1.7933-.3921h3.14c.3818.00027.7479.15207 1.0179.42206.27.27.4218.63611.4221 1.01794v1.16c-.0003.38183-.1521.74795-.4221 1.01794-.27.27-.6361.4218-1.0179.42206h-3.14c-.0572-.00005-.113.01788-.1595.05126-.0465.03337-.0813.08051-.0995.13474l-1.07 2.731c-.0683.17138-.1471.33837-.236.5l1.77 2.866c.1356.203.401.1905.6317.1796.0499-.0023.0983-.0046.1433-.0046.2275.0022.4533.0386.67.108zm-16.15587 4.6799c.17407.174.4097.2725.65587.2741l.773.002c.24842-.0029.48585-.1028.66152-.2785.04723-.0472.08899-.0989.12486-.1541-.60577-.0096-1.13845-.168-1.57041-.4693-.40983-.2859-.69696-.6783-.86394-1.1321-.03565.0992-.05458.2046-.05503.312v.79c.00157.2462.10006.4818.27413.6559zm2.91917-1.2227c.0137-.0178.027-.0359.0398-.0545.146-.2108.226-.4603.2299-.7167v-1.55c-.0003-.0642.0174-.1273.051-.182.0332-.055.0814-.0995.139-.128l1.343-.645-.363 2.735c.0017.2192.0533.4351.1511.6312.0977.1962.2389.3675.4129.5008.3437.2633.8032.3724 1.2629.236l3.73-1.17c.5278-.1557.9133-.6035 1.0076-1.1423l.0054-.0008c.0148-.0843.0223-.1702.0221-.2569l-.145-1.627.96 1.552.01.015c.0021.0057.0056.0108.01.015.3559.5332.8364.9715 1.4 1.277.0111.0058.0228.0108.0346.0158.0105.0045.021.009.0314.0142.4994.2341 1.0342.3786 1.5801.4287.5321-.4005.7833-.9701.867-1.5231.0446-.2941.0396-.5731.0072-.7997-.0095-.0665-.0208-.1248-.0327-.1752-.0617-.0099-.1244-.0152-.1876-.0157h-.214l.007-.007c-.264.0263-.5304-.015-.774-.12-.2437-.1049-.4567-.2701-.619-.48l-2.07-3.35c-.0199-.03187-.0408-.06276-.0627-.09265-.6126.77312-1.5469 1.24265-2.5773 1.24265h-2.69c-.98 0-1.487-.868-1.487-.868l-2.723 1.308c-.48839.2393-.89996.6107-1.18806 1.072-.28809.4613-.44119.9941-.44194 1.538v1.17c-.0008 0-.0016 0-.0024 0 .08008.414.28432.7282.57354.9299.35296.2463.91052.3791 1.70216.2233zm13.7057.2928c.0548.0546.1243.0921.2.108l.033.007c.07.0093.1412.0011.2073-.0236.066-.0248.125-.0654.1717-.1184.0613-.0663.0998-.1503.11-.24.0044-.0879-.0179-.175-.064-.25-.0043-.0054-.0046-.0116-.0048-.0178-.0002-.0053-.0004-.0106-.0032-.0152h.67c.1307-.0002.2602-.026.381-.076.1196-.0493.2284-.1217.32-.213.1836-.1867.2867-.4381.287-.7 0-.0095-.0025-.0185-.005-.0275s-.005-.018-.005-.0275c-.0021-.11-.0227-.2189-.061-.322-.0039-.009-.0094-.0167-.0149-.0244-.0043-.006-.0086-.012-.0121-.0186-.0397-.0841-.0916-.162-.154-.231-.0315-.0326-.0648-.0634-.1-.092-.053-.0444-.1107-.083-.172-.115-.0367-.0206-.0748-.0386-.114-.054-.108-.0427-.2229-.0657-.339-.068h-1.2308c.0146.2488.0051.5205-.0373.8004-.0648.4272-.2088.8857-.4703 1.3113zm-11.849-7.68621c.2405.24932.5771.40386.9499.40386h.02c.3154 0 .6048-.15779.7745-.41365h.551c.1697.25586.4591.41365.7745.41365h.64c.6223 0 1.1436-.43052 1.2855-1.01364h.4763c.0423-.06862.0787-.14213.1083-.22001l.1725-.43999h-.7615c-.1467-.57211-.6564-.99366-1.2811-.99366h-2.76c-.671 0-1.2246.50063-1.3117 1.15339l-.0002.00126c-.0253.18645-.011.37598.0417.55627.049.16848.1301.32295.2361.45636.0265.03338.0546.06532.0842.09616zm6.3701 7.47451c-.2623.2401-.5797.4248-.938.5321l-3.7304 1.1701-.0074.0022c-.4043.12-.8064.1297-1.1807.0506l1.1494 2.5027c.0231.0482.0298.1026.019.155-.0096.0225-.0221.0437-.037.063-.01.0258-.0242.0498-.042.071l-1.66 1.49c-.0052.0047-.0091.0107-.013.0168-.0036.0057-.0072.0114-.012.0162-.2488.2281-.3974.5453-.4133.8825s.1021.667.3283.9175h.005c.1161.1235.2559.2225.411.291.0587.02.1189.0354.18.046.0971.033.1978.0541.3.063.3196.0094.6309-.1029.871-.314l1.684-1.513c.4029-.3661.69-.8419.826-1.369.0251-.0945.0451-.1903.06-.287.002-.0134.0043-.0269.0066-.0404.0076-.0459.0154-.0923.0154-.1386.0085-.1038.0115-.2079.009-.312-.006-.054-.006-.109-.006-.163-.0106-.1177-.0286-.2346-.054-.35-.004-.0183-.0072-.0368-.0105-.0553-.004-.023-.008-.046-.0135-.0687-.0408-.1597-.0954-.3156-.163-.466l-.38-.84c-.0111-.0231-.017-.0484-.017-.074-.0001-.0257.005-.0513.015-.075.0103-.0236.0256-.0447.0447-.062.0191-.0172.0417-.0302.0663-.038 0 0 .42-.12.68-.2.0254-.0067.0517-.0101.078-.01.0215.0025.0427.0075.063.015.0153.0025.0303.0062.045.011h.023c.0399.0214.0741.0519.1.089l1.29 1.89c-.0085.003-.016.0078-.0235.0125-.0075.0048-.015.0095-.0235.0125-.1637.0687-.3112.1709-.433.3-.0495.0445-.0956.0926-.138.144-.0111.0155-.0188.0335-.0265.0516-.0063.0145-.0125.0291-.0205.0424-.0526.0825-.0955.1707-.128.263-.0152.0657-.0249.1326-.029.2-.0143.0628-.0236.1267-.028.191 0 .0065.002.0125.004.0185s.004.012.004.0185c-.0016.2804.106.5505.3.753.0105.0139.0189.0288.0272.0436.0114.0203.0226.0402.0388.0564.1149.1142.2507.2052.4.268.1471.0598.3042.091.463.092h.039l.49-.01c.3308-.0022.6562-.0843.9486-.2393.2923-.1549.5429-.3782.7304-.6507.2234-.3318.3421-.7231.3409-1.1231-.0013-.4-.1225-.7905-.3479-1.1209v-.006l-1.85-2.73zm-7.8381.9357c-.0822.3412-.2578.6528-.507.9h.005c-.1379.1364-.2957.2511-.468.34.6174-.1525 1.2426-.271 1.873-.355l-.1-.216c-.0952-.2103-.1579-.4339-.186-.663-.096-.1127-.181-.2342-.254-.363-.1072.1322-.229.252-.363.357zm-1.082 12.47 12.99-4.31c.7081-.2399 1.293-.7491 1.6281-1.4174s.3933-1.4417.1619-2.1526l-.02-.07c-.1746-.5236-.4989-.9846-.9328-1.3258-.4338-.3413-.9582-.5479-1.5082-.5942.0783.267.1191.5437.121.822.0028.6629-.2153 1.3078-.6198 1.833-.4046.5251-.9725.9006-1.6142 1.067.0415.2637-.002.5338-.1243.7711-.1222.2374-.3169.4296-.5557.5489-.173.0778-.3603.1187-.55.12-.2375.0005-.4703-.0658-.6719-.1914-.2016-.1255-.3638-.3052-.4681-.5186l-.722-1.493-.009-.009c-.175.2572-.3805.4923-.612.7l-1.693 1.531c-.1982.171-.4246.3063-.669.4.1424.3006.1609.6452.0515.9593-.1095.3142-.3381.5727-.6365.7197-.1724.0797-.3601.1207-.55.12-.2375.0005-.4703-.0658-.6719-.1914-.2016-.1255-.3638-.3052-.4681-.5186l-.89-1.84c-.0966-.1989-.1391-.4197-.1231-.6402s.0898-.4329.2141-.6158v-.085l-2.837.941c-.71061.2363-1.29832.7451-1.63397 1.4145s-.39177 1.4447-.15603 2.1555l.02.07c.11474.3514.29761.6767.53817.9574.24055.2807.53407.5112.86376.6784.3297.1671.68911.2677 1.05769.2959s.7391-.0166 1.09038-.1317zm8.2-22.5c.2154 0 .39-.1746.39-.39 0-.21539-.1746-.39-.39-.39s-.39.17461-.39.39c0 .2154.1746.39.39.39zm10.99 13.02c0-.8063-.6537-1.46-1.46-1.46s-1.46.6537-1.46 1.46.6537 1.46 1.46 1.46 1.46-.6537 1.46-1.46z"/><path d="m22.5901 7.97998c-.5523 0-1 .44772-1 1 0 .55229.4477 1 1 1s1-.44771 1-1c0-.55228-.4477-1-1-1z"/></g></svg>